# xmcd
#
# Track frame offsets:
#	150
#	15331
#	29588
#	43128
#	58203
#	83120
#	99292
#	114557
#	125687
#	140532
#	155270
#
# Disc length: 2254 seconds
#
# Revision: 0
# Processed by: cddbd v1.5.2PL0 Copyright (c) Steve Scherf et al.
# Submitted via: EasyCDDAExtractor 2010.4.0.0
#
DISCID=8e08cc0b
DTITLE=Ronnie Milsap
DYEAR=1971
DGENRE=Country
TTITLE0=Dedicate the Blues to Me
TTITLE1=Sunday Rain
TTITLE2=Please Don't Tell Me How the Story Ends
TTITLE3=Sweet Little Rock and Roller
TTITLE4=Blue Skies of Montana
TTITLE5=Sanctified
TTITLE6=Keep on Smiling
TTITLE7=The  Cat Was a Junkie
TTITLE8=Crying
TTITLE9=Not for the Love of a Woman
TTITLE10=Why
EXTD=
EXTT0=
EXTT1=
EXTT2=
EXTT3=
EXTT4=
EXTT5=
EXTT6=
EXTT7=
EXTT8=
EXTT9=
EXTT10=
PLAYORDER=
